<svg width="28" height="28" viewBox="0 0 28 28" fill="none" xmlns="http://www.w3.org/2000/svg">
<circle cx="14" cy="14" r="14" fill="#C4C4C4"/>
<path d="M14 13C14.8284 13 15.5 12.3284 15.5 11.5C15.5 10.6716 14.8284 10 14 10C13.1715 10 12.5 10.6716 12.5 11.5C12.5 12.3284 13.1715 13 14 13Z" fill="#757575"/>
<path d="M14 4C11.892 3.99989 9.86924 4.83176 8.37124 6.31478C6.87323 7.79781 6.02108 9.81214 6 11.92C6 17.4 13.05 23.4999 13.35 23.7599C13.5311 23.9149 13.7616 24 14 24C14.2383 24 14.4688 23.9149 14.65 23.7599C15 23.4999 21.9999 17.4 21.9999 11.92C21.9789 9.81214 21.1267 7.79781 19.6287 6.31478C18.1307 4.83176 16.1079 3.99989 14 4ZM14 15C13.3077 15 12.6311 14.7947 12.0555 14.4101C11.4799 14.0255 11.0313 13.4789 10.7664 12.8394C10.5015 12.1998 10.4322 11.4961 10.5672 10.8172C10.7023 10.1382 11.0356 9.51459 11.5251 9.02511C12.0146 8.53563 12.6382 8.20229 13.3172 8.06724C13.9961 7.93219 14.6998 8.0015 15.3394 8.26641C15.9789 8.53131 16.5255 8.97992 16.9101 9.55549C17.2947 10.1311 17.5 10.8077 17.5 11.5C17.5 12.4282 17.1312 13.3185 16.4748 13.9748C15.8185 14.6312 14.9282 15 14 15Z" fill="#757575"/>
</svg>
