<svg width="12" height="14" viewBox="0 0 12 14" fill="none" xmlns="http://www.w3.org/2000/svg">
<path d="M9.96025 10.1639C11.0106 9.11301 11.6006 7.68805 11.6006 6.20228C11.6006 4.71651 11.0106 3.29155 9.96025 2.24068C9.44034 1.72042 8.82301 1.3077 8.14354 1.02612C7.46406 0.744541 6.73576 0.599609 6.00025 0.599609C5.26474 0.599609 4.53644 0.744541 3.85696 1.02612C3.17749 1.3077 2.56016 1.72042 2.04025 2.24068C0.989924 3.29155 0.399902 4.71651 0.399902 6.20228C0.399902 7.68805 0.989924 9.11301 2.04025 10.1639L3.25705 11.3631L4.89145 12.9511L4.99785 13.0455C5.61785 13.5479 6.52585 13.5159 7.10985 12.9511L9.05785 11.0551L9.96025 10.1639ZM6.00025 8.59988C5.36373 8.59988 4.75328 8.34702 4.30319 7.89693C3.85311 7.44685 3.60025 6.8364 3.60025 6.19988C3.60025 5.56336 3.85311 4.95291 4.30319 4.50282C4.75328 4.05273 5.36373 3.79988 6.00025 3.79988C6.63677 3.79988 7.24722 4.05273 7.69731 4.50282C8.14739 4.95291 8.40025 5.56336 8.40025 6.19988C8.40025 6.8364 8.14739 7.44685 7.69731 7.89693C7.24722 8.34702 6.63677 8.59988 6.00025 8.59988Z" fill="#EA2327"/>
</svg>
