<svg width="26" height="25" viewBox="0 0 26 25" fill="none" xmlns="http://www.w3.org/2000/svg">
<circle cx="13.0386" cy="12.5" r="12.5" fill="#C4C4C4"/>
<path d="M21.4415 6.87667C20.3591 6.42271 19.276 6.25 18.1934 6.25C14.7568 6.24972 11.3204 7.9894 7.8837 7.9894C7.02182 7.9894 6.16049 7.88002 5.2986 7.60658C5.20178 7.57589 5.10468 7.56138 5.00982 7.56138C4.52963 7.56138 4.10999 7.93304 4.10999 8.44894V17.3011C4.10999 17.6535 4.31172 17.9874 4.63566 18.123C5.71797 18.5773 6.80111 18.75 7.8837 18.75C11.3204 18.75 14.757 17.0103 18.1937 17.0103C19.0556 17.0103 19.9169 17.1197 20.7788 17.3931C20.8756 17.4238 20.9727 17.4383 21.0676 17.4383C21.5478 17.4383 21.9674 17.0667 21.9674 16.5508V7.69894C21.9671 7.34626 21.7654 7.01256 21.4415 6.87667ZM13.0386 15.1786C11.8056 15.1786 10.8064 13.9791 10.8064 12.5C10.8064 11.0206 11.8059 9.82143 13.0386 9.82143C14.2713 9.82143 15.2707 11.0206 15.2707 12.5C15.2707 13.9796 14.271 15.1786 13.0386 15.1786Z" fill="#757575"/>
</svg>
